<svg width="72" height="72" viewBox="0 0 72 72" fill="none" xmlns="http://www.w3.org/2000/svg" role="img" aria-hidden="true">
  <circle cx="36" cy="36" r="34" fill="#E6FAFC"/>
  <path d="M18 60c3.7-11 11-16 18-16s14.3 5 18 16" fill="#52C7D8"/>
  <path d="M17 23c0-7 4-12 11-12 6.8 0 11 4.6 11 11.5-4-2.6-8-4-12.8-4-3.4 0-6.2 1.2-9.2 4.5Z" fill="#2C2C35"/>
  <circle cx="28" cy="28" r="13" fill="#FFD0AA"/>
  <path d="M23 30.5c2.5 2.2 7.5 2.2 10 0" stroke="#9B5A43" stroke-width="1.6" stroke-linecap="round" opacity=".55"/>
  <circle cx="24" cy="27" r="1.4" fill="#17233D"/>
  <circle cx="32" cy="27" r="1.4" fill="#17233D"/>
  <path d="M19.5 26.5h5.8M30.7 26.5h5.8" stroke="#17233D" stroke-width="1.5"/><circle cx="22.5" cy="26.5" r="3.3" stroke="#17233D" stroke-width="1.5" fill="none"/><circle cx="33.5" cy="26.5" r="3.3" stroke="#17233D" stroke-width="1.5" fill="none"/>

</svg>
